[pre]  
    *********** ****    ****      ***      ******** *********** ****    *** **********
           *+*     +*+*+* *+*+*+   *+* *+*   *+*    *+*    *+*     *+*+*   *+* *+*        
           +*+     +*+ +*+*+ +*+  +*+   +*+  +*+           +*+     *+*+*+  +*+ +*+        
           +$+     +$+  +*+  +$+ +$++*++$++* *$*           +$+     +$+ +*+ +$+ +$++*++$  
           +$+     +$+       +$+ +$+     +$+ +$+   +$+$    +$+     +$+  +$+$+$ +$+        
           $+$     $+$       $+$ $+$     $+$ $+$    $+$    $+$     $+$   $+$+$ $+$        
       $$$$$$$$$$$ $$$       $$$ $$$     $$$  $$$$$$$$ $$$$$$$$$$$ $$$    $$$$ $$$$$$$$$$     
                                                



                           Another Fine Release Brought to you from - IMAGiNE                   
                                                 

********************************************************************************************************************                                
                                         Due Date TS XViD - IMAGiNE
********************************************************************************************************************

Ripper ...........: IMAGiNE                                        IMDB Rating.......:7.2/10                             
Video Codec.......: XVID                                         Release Date......:03/12/10
Audio Codec.......:MP3                                           Theatre Date......:05/11/10
Audio Bitrate.....:128                                              Runtime.......:1h 29mn
Subtitles.........:NIL                                                 Language..........:ENGLISH
Resolution...... 672 x 304                                      IMDb URL..........:http://www.imdb.com/title/tt1231583/


[color=yellow]DETAILS:[/color]

Video
ID                               : 0
Format                           : MPEG-4 Visual
Format profile                   : Advanced Simple@L5
Format settings, BVOP            : Yes
Format settings, QPel            : No
Format settings, GMC             : No warppoints
Format settings, Matrix          : Default (H.263)
Muxing mode                      : Packed bitstream
Codec ID                         : XVID
Codec ID/Hint                    : XviD
Duration                         : 1h 29mn
Bit rate                         : 1 421 Kbps
Width                            : 672 pixels
Height                           : 304 pixels
Display aspect ratio             : 2.2
Frame rate                       : 23.976 fps
Resolution                       : 24 bits
Colorimetry                      : 4:2:0
Scan type                        : Progressive
Bits/(Pixel*Frame)               : 0.290
Stream size                      : 703 MiB (91%)
Writing library                  : XviD 1.1.2 (UTC 2006-11-01)

Audio
ID                               : 1
Format                           : MPEG Audio
Format version                   : Version 1
Format profile                   : Layer 3
Codec ID                         : 55
Codec ID/Hint                    : MP3
Duration                         : 1h 29mn
Bit rate mode                    : Constant
Bit rate                         : 128 Kbps
Channel(s)                       : 2 channels
Sampling rate                    : 44.1 KHz
Resolution                       : 16 bits
Stream size                      : 82.3 MiB (8%)
Alignment                        : Split accross interleaves
Interleave, duration             : 42 ms (1.00 video frame)
Interleave, preload duration     : 500 ms


[color=yellow]SOURCES:[/color]

VIDEO:Russian cam and Spanish cam ......Thanks both 
AUDIO:OWN LiNE

[color=yellow]NOTES:[/color]

IMAGiNE bringing you another release..........Due Date 

Well sorry no new video folks.....so this is just our cam release but now muxed with some decent line audio.
Also our cam release was the full version,becuase we used the russian and spanish releases to make it
complete.
Video wise nothing to special but until a new source comes along nothing we can do :(

Anyway Enjoy folks :)

[color=yellow]SCREENS:[/color]

[IMG]http://img811.imageshack.us/img811/5083/vlcsnap120649.png[/IMG]
[IMG]http://img30.imageshack.us/img30/6776/vlcsnap121268.png[/IMG]
[IMG]http://img12.imageshack.us/img12/7369/vlcsnap121561.png[/IMG]
[IMG]http://img255.imageshack.us/img255/6691/vlcsnap121751.png[/IMG]

[color=yellow]GREETS:[/color]

FLAWL3SS,ViSiON,FUSiON,Rx,SecretMyth,BirdFlu,ELEKTRI4KA and Autotron
And to all the other p2p grps past and present 

[COLOR=RED]Looking for these,syncers,cammers,silver supplier.....Have anything to offer????......
Contact us imaginegroup@hushmail.com[/COLOR][/pre]





                              
     
